<mxfile host="app.diagrams.net" modified="2024-01-03T15:34:22.956Z" agent="Mozilla/5.0 (Windows NT 10.0; Win64; x64) AppleWebKit/537.36 (KHTML, like Gecko) Chrome/119.0.0.0 Safari/537.36 OPR/105.0.0.0" etag="X2FYPlABMTBFVPTIgKNu" version="22.1.16" type="device">
  <diagram name="Page-1" id="q8jU2bg9zWxrX2sxmKN6">
    <mxGraphModel dx="1434" dy="728" grid="1" gridSize="10" guides="1" tooltips="1" connect="1" arrows="1" fold="1" page="1" pageScale="1" pageWidth="827" pageHeight="1169" math="0" shadow="0">
      <root>
        <mxCell id="0" />
        <mxCell id="1" parent="0" />
        <mxCell id="qx8B8ub2kGdt5S-5n0rp-40" style="edgeStyle=orthogonalEdgeStyle;rounded=0;orthogonalLoop=1;jettySize=auto;html=1;exitX=0.5;exitY=1;exitDx=0;exitDy=0;" edge="1" parent="1" source="qx8B8ub2kGdt5S-5n0rp-1" target="qx8B8ub2kGdt5S-5n0rp-4">
          <mxGeometry relative="1" as="geometry" />
        </mxCell>
        <mxCell id="qx8B8ub2kGdt5S-5n0rp-1" value="EDF/BDF Files" style="rounded=1;whiteSpace=wrap;html=1;" vertex="1" parent="1">
          <mxGeometry x="340" y="80" width="120" height="60" as="geometry" />
        </mxCell>
        <mxCell id="qx8B8ub2kGdt5S-5n0rp-4" value="Preprocessed maps" style="rounded=0;whiteSpace=wrap;html=1;" vertex="1" parent="1">
          <mxGeometry x="340" y="230" width="120" height="60" as="geometry" />
        </mxCell>
        <mxCell id="qx8B8ub2kGdt5S-5n0rp-5" value="make_microstates function" style="text;html=1;align=center;verticalAlign=middle;resizable=0;points=[];autosize=1;strokeColor=none;fillColor=none;" vertex="1" parent="1">
          <mxGeometry x="400" y="180" width="170" height="30" as="geometry" />
        </mxCell>
        <mxCell id="qx8B8ub2kGdt5S-5n0rp-6" value="reference maps &lt;br&gt;exist?" style="rhombus;whiteSpace=wrap;html=1;" vertex="1" parent="1">
          <mxGeometry x="360" y="345" width="80" height="80" as="geometry" />
        </mxCell>
        <mxCell id="qx8B8ub2kGdt5S-5n0rp-12" value="no" style="text;html=1;align=center;verticalAlign=middle;resizable=0;points=[];autosize=1;strokeColor=none;fillColor=none;fontStyle=1" vertex="1" parent="1">
          <mxGeometry x="460" y="355" width="40" height="30" as="geometry" />
        </mxCell>
        <mxCell id="qx8B8ub2kGdt5S-5n0rp-13" value="connecting the maps by hand" style="rounded=0;whiteSpace=wrap;html=1;" vertex="1" parent="1">
          <mxGeometry x="570" y="355" width="120" height="60" as="geometry" />
        </mxCell>
        <mxCell id="qx8B8ub2kGdt5S-5n0rp-16" value="calculate the average maps which will be the reference as well" style="rounded=0;whiteSpace=wrap;html=1;" vertex="1" parent="1">
          <mxGeometry x="570" y="501" width="120" height="60" as="geometry" />
        </mxCell>
        <mxCell id="qx8B8ub2kGdt5S-5n0rp-19" value="" style="endArrow=classic;html=1;rounded=0;exitX=0.5;exitY=1;exitDx=0;exitDy=0;" edge="1" parent="1" source="qx8B8ub2kGdt5S-5n0rp-1" target="qx8B8ub2kGdt5S-5n0rp-4">
          <mxGeometry width="50" height="50" relative="1" as="geometry">
            <mxPoint x="140" y="510" as="sourcePoint" />
            <mxPoint x="190" y="460" as="targetPoint" />
          </mxGeometry>
        </mxCell>
        <mxCell id="qx8B8ub2kGdt5S-5n0rp-20" value="" style="endArrow=classic;html=1;rounded=0;exitX=1;exitY=0.5;exitDx=0;exitDy=0;entryX=0;entryY=0.5;entryDx=0;entryDy=0;" edge="1" parent="1" source="qx8B8ub2kGdt5S-5n0rp-6" target="qx8B8ub2kGdt5S-5n0rp-13">
          <mxGeometry width="50" height="50" relative="1" as="geometry">
            <mxPoint x="300" y="440" as="sourcePoint" />
            <mxPoint x="350" y="390" as="targetPoint" />
          </mxGeometry>
        </mxCell>
        <mxCell id="qx8B8ub2kGdt5S-5n0rp-22" value="" style="endArrow=classic;html=1;rounded=0;exitX=0.5;exitY=1;exitDx=0;exitDy=0;entryX=0.5;entryY=0;entryDx=0;entryDy=0;" edge="1" parent="1" source="qx8B8ub2kGdt5S-5n0rp-13" target="qx8B8ub2kGdt5S-5n0rp-16">
          <mxGeometry width="50" height="50" relative="1" as="geometry">
            <mxPoint x="600" y="450" as="sourcePoint" />
            <mxPoint x="700" y="415" as="targetPoint" />
          </mxGeometry>
        </mxCell>
        <mxCell id="qx8B8ub2kGdt5S-5n0rp-26" value="" style="endArrow=classic;html=1;rounded=0;exitX=0.5;exitY=1;exitDx=0;exitDy=0;" edge="1" parent="1" source="qx8B8ub2kGdt5S-5n0rp-4" target="qx8B8ub2kGdt5S-5n0rp-6">
          <mxGeometry width="50" height="50" relative="1" as="geometry">
            <mxPoint x="210" y="470" as="sourcePoint" />
            <mxPoint x="260" y="420" as="targetPoint" />
          </mxGeometry>
        </mxCell>
        <mxCell id="qx8B8ub2kGdt5S-5n0rp-30" value="" style="endArrow=classic;html=1;rounded=0;exitX=0;exitY=0.5;exitDx=0;exitDy=0;entryX=0.5;entryY=1;entryDx=0;entryDy=0;" edge="1" parent="1" source="qx8B8ub2kGdt5S-5n0rp-16" target="qx8B8ub2kGdt5S-5n0rp-6">
          <mxGeometry width="50" height="50" relative="1" as="geometry">
            <mxPoint x="200" y="620" as="sourcePoint" />
            <mxPoint x="470" y="530" as="targetPoint" />
            <Array as="points">
              <mxPoint x="400" y="530" />
            </Array>
          </mxGeometry>
        </mxCell>
        <mxCell id="qx8B8ub2kGdt5S-5n0rp-31" value="" style="endArrow=classic;html=1;rounded=0;exitX=0;exitY=0.5;exitDx=0;exitDy=0;entryX=1;entryY=0.5;entryDx=0;entryDy=0;" edge="1" parent="1" source="qx8B8ub2kGdt5S-5n0rp-6" target="qx8B8ub2kGdt5S-5n0rp-34">
          <mxGeometry width="50" height="50" relative="1" as="geometry">
            <mxPoint x="310" y="430" as="sourcePoint" />
            <mxPoint x="320" y="490" as="targetPoint" />
          </mxGeometry>
        </mxCell>
        <mxCell id="qx8B8ub2kGdt5S-5n0rp-34" value="backfitted microstates" style="rounded=0;whiteSpace=wrap;html=1;" vertex="1" parent="1">
          <mxGeometry x="95" y="355" width="120" height="60" as="geometry" />
        </mxCell>
        <mxCell id="qx8B8ub2kGdt5S-5n0rp-35" value="yes" style="text;html=1;align=center;verticalAlign=middle;resizable=0;points=[];autosize=1;strokeColor=none;fillColor=none;fontStyle=1" vertex="1" parent="1">
          <mxGeometry x="280" y="355" width="40" height="30" as="geometry" />
        </mxCell>
        <mxCell id="qx8B8ub2kGdt5S-5n0rp-37" value="calc_average_microstates function" style="text;html=1;align=center;verticalAlign=middle;resizable=0;points=[];autosize=1;strokeColor=none;fillColor=none;" vertex="1" parent="1">
          <mxGeometry x="630" y="440" width="210" height="30" as="geometry" />
        </mxCell>
        <mxCell id="qx8B8ub2kGdt5S-5n0rp-38" value="make_microstates function" style="text;html=1;align=center;verticalAlign=middle;resizable=0;points=[];autosize=1;strokeColor=none;fillColor=none;" vertex="1" parent="1">
          <mxGeometry x="215" y="390" width="170" height="30" as="geometry" />
        </mxCell>
      </root>
    </mxGraphModel>
  </diagram>
</mxfile>
